<svg xmlns="http://www.w3.org/2000/svg" xmlns:xlink="http://www.w3.org/1999/xlink" width="393.333" height="66.923" viewBox="0 0 393.333 66.923"><defs><style>.a{fill:none;}.b{fill:#ce122d;}.c{clip-path:url(#a);}.d{fill:#fff;}</style><clipPath id="a"><rect class="a" width="393.333" height="66.923" transform="translate(0 0)"/></clipPath></defs><g transform="translate(0 0)"><path class="b" d="M25.786,20.833l8.08,20.644H17.592ZM17.634,0l3.911,9.993L0,64.262H8.547l6.113-15.4h22.1l6.025,15.4H60.164L35.015,0Z"/><path class="b" d="M67.583,0V64.262h42.423l3.07-7.737H83.858v-21h20.321l2.98-7.509h-23.3V7.736h25.486L112.416,0Z"/><g class="c"><path class="b" d="M146.489,37.041h10.725V58.787a16.381,16.381,0,0,1-4.308.557c-14.458,0-18.688-13.4-18.688-25.254,0-11.374,3.628-24.84,17.6-24.84h14.9l3.07-7.738H150.076c-19.144,0-32.657,13.23-32.657,32.578,0,19.108,12.978,32.576,33.1,32.576A61.539,61.539,0,0,0,172.4,62.889V29.533H149.47Z"/><path class="d" d="M237.5,15.1v9.712h-1.868V2.309h7.952c4.4,0,7.293,2.2,7.293,6.377,0,4.216-2.894,6.415-7.293,6.415ZM243.508,4H237.5v9.382h6.011c3.482,0,5.5-1.723,5.5-4.692,0-2.931-2.016-4.69-5.5-4.69"/><path class="d" d="M262.777,25.141c-5.716,0-9.932-4.69-9.932-11.579S257.061,1.98,262.777,1.98c5.755,0,9.968,4.692,9.968,11.582s-4.213,11.579-9.968,11.579m0-21.4c-4.765,0-8.025,4.032-8.025,9.823s3.26,9.82,8.025,9.82c4.8,0,8.063-4.032,8.063-9.82s-3.262-9.823-8.063-9.823"/><path class="d" d="M287.379,2.31l5.278,19.35,5.2-19.35h1.832l-6.12,22.5h-1.685L286.573,5.645,281.3,24.811h-1.648L273.49,2.31h1.869l5.2,19.35L285.84,2.31Z"/><path class="d" d="M316.31,2.31V4.033H304.178v8.318h11v1.723h-11V23.09H316.31v1.721H302.346V2.31Z"/><path class="d" d="M321.335,14.879v9.932h-1.869V2.31h7.768c4.4,0,7.258,2.2,7.258,6.3,0,3.627-2.237,5.716-5.755,6.192l6.818,10.005h-2.163l-6.706-9.932Zm0-1.648h5.826c3.444,0,5.5-1.723,5.5-4.617,0-2.97-2.053-4.618-5.5-4.618h-5.826Z"/><path class="d" d="M234.163,62.525a9.768,9.768,0,0,0,6.962,2.676c3.226,0,5.278-1.614,5.278-4.215,0-2.272-1.282-3.187-4.031-4.361l-3.3-1.394c-2.345-.987-4.874-2.345-4.874-5.752,0-3.812,3.19-5.719,6.817-5.719a10.878,10.878,0,0,1,6.3,1.907v2.089a9.326,9.326,0,0,0-6.267-2.273c-2.786,0-5.022,1.319-5.022,3.959,0,2.2,1.54,3.151,3.923,4.1l3.48,1.466c3.3,1.428,4.8,3.042,4.8,5.937,0,3.591-3.005,5.972-7.11,5.972a10.734,10.734,0,0,1-6.962-2.234Z"/><path class="d" d="M260.164,66.922c-5.716,0-9.932-4.692-9.932-11.581s4.216-11.58,9.932-11.58c5.755,0,9.968,4.69,9.968,11.58s-4.213,11.581-9.968,11.581m0-21.4c-4.765,0-8.025,4.032-8.025,9.821s3.26,9.822,8.025,9.822c4.8,0,8.063-4.031,8.063-9.822s-3.262-9.821-8.063-9.821"/><path class="d" d="M273.636,44.091H275.5v20.78h12.2v1.721H273.636Z"/><path class="d" d="M289.171,57.724V44.09h1.868V57.467c0,5.278,2.858,7.732,6.745,7.732s6.778-2.454,6.778-7.732V44.09h1.871V57.724c0,6.193-3.812,9.2-8.649,9.2s-8.613-3-8.613-9.2"/><path class="d" d="M308.995,44.091h18.324v1.723h-8.245V66.592H317.2V45.814h-8.209Z"/><rect class="d" width="1.868" height="22.501" transform="translate(330.079 44.092)"/><path class="d" d="M345.368,66.922c-5.718,0-9.932-4.692-9.932-11.581s4.214-11.58,9.932-11.58c5.755,0,9.968,4.69,9.968,11.58s-4.213,11.581-9.968,11.581m0-21.4c-4.765,0-8.027,4.032-8.027,9.821s3.262,9.822,8.027,9.822c4.8,0,8.063-4.031,8.063-9.822s-3.262-9.821-8.063-9.821"/><path class="d" d="M375.625,66.593h-1.246L360.636,47.059V66.593h-1.8v-22.5h1.8l13.193,18.762V44.092h1.8Z"/><path class="d" d="M379.261,62.525a9.771,9.771,0,0,0,6.962,2.676c3.226,0,5.278-1.614,5.278-4.215,0-2.272-1.282-3.187-4.031-4.361l-3.3-1.394c-2.345-.987-4.874-2.345-4.874-5.752,0-3.812,3.19-5.719,6.817-5.719a10.878,10.878,0,0,1,6.3,1.907v2.089a9.326,9.326,0,0,0-6.267-2.273c-2.786,0-5.022,1.319-5.022,3.959,0,2.2,1.54,3.151,3.923,4.1l3.48,1.466c3.3,1.428,4.8,3.042,4.8,5.937,0,3.591-3.005,5.972-7.11,5.972a10.73,10.73,0,0,1-6.962-2.234Z"/></g></g></svg>