<svg xmlns="http://www.w3.org/2000/svg" width="180" height="66" viewBox="0 0 180 66" fill="none">
<path d="M155.053 65.2496L179.993 0.749268H167.127L148.345 49.3234L129.56 0.749268H116.694L141.636 65.2496H155.053Z" fill="#b9052d"/>
<path d="M52.4993 12.7509V0.75177H15.0003C6.7155 0.75177 0 7.46727 0 15.7521V65.2521H11.9992V41.2501H40.4983V30.7506H11.9992V15.7503C11.9992 14.0929 13.343 12.7509 14.9985 12.7509H52.4993Z" fill="#b9052d"/>
<path d="M105.565 41.25C102.358 48.7465 94.9168 54.0008 86.247 54.0008C80.3785 54.0008 75.0728 51.5937 71.2613 47.7143L106.485 27.3772L117.095 21.252C115.83 17.9318 114.044 14.8702 111.838 12.1642C105.787 4.73917 96.5686 0 86.2451 0C68.0199 0 53.2451 14.7748 53.2451 33C53.2451 37.1378 54.0059 41.0978 55.3974 44.748C56.6624 48.0682 58.4481 51.1298 60.6536 53.8358C66.7055 61.2608 75.9216 66 86.2451 66C101.621 66 114.543 55.4822 118.207 41.25H105.565ZM65.2461 33C65.2461 21.4023 74.6475 11.9992 86.247 11.9992C92.1154 11.9992 97.4211 14.4063 101.233 18.2857L66.0069 38.6228C65.5101 36.8335 65.2461 34.9488 65.2461 33Z" fill="#b9052d"/>
</svg>