<?xml version="1.0" standalone="no"?>
<!DOCTYPE svg PUBLIC "-//W3C//DTD SVG 20010904//EN"
 "http://www.w3.org/TR/2001/REC-SVG-20010904/DTD/svg10.dtd">
<svg version="1.0" xmlns="http://www.w3.org/2000/svg"
 width="1200.000000pt" height="628.000000pt" viewBox="0 0 1200.000000 628.000000"
 preserveAspectRatio="xMidYMid meet">

<g transform="translate(0.000000,628.000000) scale(0.100000,-0.100000)"
fill="#000000" stroke="none">
<path d="M652 3510 c-55 -12 -120 -48 -145 -81 -40 -55 -40 -272 0 -328 46
-62 140 -81 414 -81 182 0 283 -10 303 -30 6 -6 10 -26 10 -46 0 -61 -10 -64
-255 -64 -239 0 -244 1 -256 61 l-5 29 -126 0 -125 0 7 -71 c7 -81 22 -116 66
-152 51 -43 111 -49 468 -45 290 3 332 6 370 22 87 37 117 106 110 251 -4 103
-22 145 -76 182 -53 35 -123 44 -377 50 -132 2 -254 9 -272 14 -55 17 -53 88
3 109 33 13 375 13 409 0 17 -6 27 -20 31 -40 l7 -30 125 0 125 0 -7 62 c-9
93 -31 128 -101 163 l-60 30 -300 2 c-165 1 -319 -2 -343 -7z"/>
<path d="M6504 3497 c-2 -7 -3 -188 -2 -401 l3 -388 45 -3 c25 -2 73 -1 108 2
l62 5 0 109 c0 106 1 109 22 109 15 0 59 -36 133 -109 l110 -110 133 -3 c72
-2 132 -1 132 2 0 3 -68 71 -152 152 l-153 146 95 89 c52 49 115 108 140 131
l45 41 -140 1 -140 0 -90 -90 c-60 -61 -97 -90 -112 -90 l-23 0 0 210 0 210
-105 0 c-78 0 -107 -3 -111 -13z"/>
<path d="M8400 3112 c0 -219 2 -401 4 -403 2 -2 52 -3 110 -1 l106 3 0 110 c0
106 1 109 22 109 15 0 59 -36 136 -112 l112 -113 130 -2 c72 -1 130 2 130 6 0
4 -70 72 -155 152 l-156 144 53 50 c30 28 93 87 140 133 l88 82 -138 0 -137 0
-97 -90 c-53 -49 -103 -90 -112 -90 -14 0 -16 25 -16 210 l0 210 -110 0 -110
0 0 -398z"/>
<path d="M2583 3260 c-25 -11 -51 -33 -63 -52 l-20 -33 0 48 0 47 -100 0 -100
0 2 -281 3 -281 102 -1 101 -2 4 178 3 179 28 24 c25 22 37 24 121 24 136 0
130 10 136 -215 l5 -187 105 0 105 0 5 179 c3 98 9 184 13 191 15 22 58 33
132 33 136 0 145 -15 145 -251 l0 -155 105 3 105 3 0 187 c0 103 -5 203 -10
223 -16 56 -51 101 -100 129 -41 22 -58 25 -175 28 -152 4 -185 -7 -224 -77
l-23 -42 -36 42 c-54 63 -97 79 -222 79 -82 0 -114 -5 -147 -20z"/>
<path d="M4587 3266 c-51 -19 -75 -42 -87 -85 -22 -81 -23 -81 95 -81 86 0
105 3 105 15 0 28 39 37 157 33 107 -3 116 -5 134 -27 16 -19 28 -91 16 -91
-2 0 -19 8 -38 18 -28 14 -62 17 -204 17 -157 0 -174 -2 -217 -23 -60 -30 -78
-67 -78 -165 0 -60 4 -80 23 -108 40 -61 71 -69 260 -69 172 0 205 6 236 44
20 24 31 19 31 -11 l0 -28 100 3 100 3 0 212 c0 184 -3 217 -19 252 -43 94
-78 104 -356 104 -160 0 -230 -4 -258 -13z m408 -336 c10 -8 15 -25 13 -44 -4
-42 -44 -55 -173 -55 -115 -1 -148 11 -153 52 -4 33 11 54 41 61 48 10 255 0
272 -14z"/>
<path d="M10370 3070 c0 -214 6 -248 53 -298 47 -51 94 -66 217 -70 138 -5
191 7 237 53 l33 33 0 -39 c0 -24 5 -39 13 -39 6 -1 50 -2 97 -4 47 -2 90 -1
97 1 10 4 13 69 13 284 l0 279 -110 0 -110 0 0 -166 0 -166 -33 -33 c-27 -27
-43 -34 -92 -39 -78 -9 -165 8 -187 35 -16 18 -18 44 -18 195 l0 174 -105 0
-105 0 0 -200z"/>
<path d="M6140 1763 c-50 -120 -94 -224 -97 -230 -4 -10 37 -13 186 -13 l191
0 23 53 23 52 -126 5 -127 5 14 33 13 32 115 0 114 0 21 46 c11 26 20 48 20
50 0 2 -52 4 -115 4 l-115 0 17 35 17 35 127 0 128 0 21 46 c11 26 20 50 20
55 0 5 -85 9 -189 9 l-188 0 -93 -217z"/>
<path d="M6580 1759 c-52 -122 -96 -226 -98 -230 -2 -5 73 -9 167 -9 l170 0
21 46 c11 26 20 50 20 55 0 5 -45 9 -100 9 -64 0 -100 4 -100 11 0 5 24 67 54
137 30 70 61 144 69 165 l16 37 -62 0 -63 0 -94 -221z"/>
<path d="M6961 1763 c-51 -120 -95 -224 -98 -230 -4 -10 37 -13 186 -13 l191
0 23 53 23 52 -127 5 -127 5 13 33 14 32 115 0 115 0 21 46 c11 26 20 48 20
50 0 2 -52 4 -115 4 l-115 0 17 35 17 35 127 0 128 0 21 46 c11 26 20 50 20
55 0 5 -85 9 -188 9 l-189 0 -92 -217z"/>
<path d="M7515 1961 c-17 -10 -38 -30 -48 -44 -25 -39 -137 -313 -137 -336 0
-12 9 -30 20 -41 18 -18 33 -20 176 -20 187 0 200 5 238 91 15 31 26 60 26 65
0 5 -27 7 -61 6 -52 -3 -62 -7 -71 -28 -11 -23 -16 -24 -100 -24 -48 0 -88 3
-87 8 0 4 21 57 47 117 l47 110 93 3 c90 3 93 2 83 -17 -17 -30 -15 -31 52
-31 l62 0 25 61 c37 93 36 93 -166 97 -150 2 -172 0 -199 -17z"/>
<path d="M7920 1934 c-11 -26 -20 -50 -20 -55 0 -5 32 -9 70 -9 39 0 70 -4 70
-9 0 -8 -33 -89 -126 -308 l-14 -33 63 0 63 0 73 175 74 175 77 0 78 0 21 49
c11 27 21 52 21 55 0 3 -97 6 -215 6 l-214 0 -21 -46z"/>
<path d="M8397 1948 c-8 -18 -51 -120 -96 -225 -44 -106 -81 -195 -81 -198 0
-3 28 -5 62 -3 l62 3 30 73 c28 68 32 72 61 72 31 0 33 -2 52 -72 l19 -73 72
-3 c40 -2 72 -1 72 1 0 3 -11 35 -25 71 -14 37 -25 68 -25 70 0 2 12 6 28 9
57 13 89 43 127 123 48 101 54 135 26 163 -20 20 -31 21 -196 21 l-175 0 -13
-32z m261 -85 c-2 -5 -10 -25 -18 -45 l-14 -38 -87 0 -88 0 16 38 c8 20 17 40
20 45 2 4 43 7 89 7 47 0 84 -3 82 -7z"/>
<path d="M8934 1961 c-44 -27 -63 -58 -126 -206 -71 -168 -73 -176 -47 -209
20 -26 21 -26 166 -26 215 0 216 0 313 230 94 224 91 230 -130 230 -125 0
-149 -3 -176 -19z m226 -98 c0 -5 -22 -57 -48 -118 l-48 -110 -87 -3 c-57 -2
-87 1 -87 8 0 6 21 60 47 120 l46 110 89 0 c48 0 88 -3 88 -7z"/>
<path d="M9400 1954 c-6 -14 -48 -115 -95 -224 -47 -109 -85 -201 -85 -205 0
-3 28 -5 61 -3 l62 3 55 128 c35 81 58 124 62 115 5 -7 20 -58 34 -113 15 -55
29 -108 32 -118 5 -15 15 -17 66 -15 l60 3 89 210 c49 116 92 218 95 228 5 16
0 18 -57 15 l-62 -3 -43 -100 c-24 -55 -48 -113 -54 -130 -15 -41 -21 -27 -55
118 l-28 117 -64 0 c-59 0 -64 -2 -73 -26z"/>
<path d="M9829 1758 c-52 -121 -95 -225 -97 -230 -2 -4 25 -8 60 -8 l63 0 64
153 c35 83 79 187 97 230 l33 77 -63 0 -63 0 -94 -222z"/>
<path d="M10130 1943 c-31 -30 -53 -68 -100 -181 -77 -184 -78 -187 -49 -218
22 -23 26 -24 178 -24 103 0 164 4 181 13 22 11 93 133 85 147 -2 3 -29 4 -61
3 -51 -1 -59 -4 -71 -27 -13 -25 -17 -26 -98 -26 -61 0 -85 3 -85 13 0 6 21
60 46 120 l47 107 88 0 c49 0 89 -3 89 -6 0 -3 -5 -14 -10 -25 -10 -18 -7 -19
53 -19 l65 0 21 51 c12 28 21 63 19 77 l-3 27 -178 3 -177 2 -40 -37z"/>
<path d="M10649 1958 c-23 -16 -46 -47 -71 -98 -43 -86 -46 -112 -18 -140 18
-18 33 -20 130 -20 l110 0 -13 -32 -13 -33 -82 -3 c-77 -3 -82 -2 -82 18 0 18
-6 20 -59 20 -56 0 -59 -1 -71 -30 -19 -46 -15 -81 11 -103 21 -16 38 -18 170
-15 l148 3 32 30 c39 37 89 139 89 181 0 54 -23 64 -143 64 -61 0 -107 4 -107
10 0 5 5 21 12 35 11 24 15 25 95 25 80 0 84 -1 78 -20 -6 -19 -2 -20 55 -20
60 0 61 0 76 35 19 47 18 71 -6 95 -18 18 -33 20 -164 20 -132 0 -146 -2 -177
-22z"/>
</g>
</svg>
