<svg height="70" viewBox="0 0 32 32" width="70" xmlns="http://www.w3.org/2000/svg"><g id="color_2"><path d="m0 6.03h32v23h-32z" fill="#fff"/><path d="m32 6.03v-1.41c0-.88-.72-1.59-1.59-1.59h-28.82c-.87 0-1.59.72-1.59 1.59v1.41z" fill="#0d6efd"/><g fill="#efefef"><circle cx="2.24" cy="4.53" r=".45"/><circle cx="3.6" cy="4.53" r=".45"/><circle cx="4.96" cy="4.53" r=".45"/><path d="m27.95 5.33h-18.47c-.44 0-.8-.36-.8-.8 0-.44.36-.8.8-.8h18.47c.44 0 .8.36.8.8 0 .44-.36.8-.8.8z"/></g><path d="m0 6.53v-.5h32v.5" fill="#0d6efd"/><path d="m16.44 10.68h7.99v.89h-7.99z" fill="#0d6efd"/><path d="m16.44 13.34h9.76v.89h-9.76z" fill="#0d6efd"/><path d="m16.44 20.44h7.99v.89h-7.99z" fill="#0d6efd"/><path d="m16.44 23.11h9.76v.89h-9.76z" fill="#0d6efd"/><circle cx="9.79" cy="12.9" fill="#0d6efd" r="3.99"/><circle cx="9.79" cy="22.66" fill="#0d6efd" r="3.99"/><path d="m8.96 14.85-1.46-1.46.71-.71.71.71 2.1-2.32.74.67z" fill="#fff"/><path d="m8.96 24.61-1.46-1.46.71-.71.71.72 2.1-2.33.74.67z" fill="#fff"/></g></svg>